<mxfile host="app.diagrams.net" modified="2023-04-23T14:21:07.085Z" agent="Mozilla/5.0 (Windows NT 10.0; Win64; x64) AppleWebKit/537.36 (KHTML, like Gecko) Chrome/112.0.0.0 Safari/537.36" etag="vzZ64HTchKT8NtGkI8L6" version="21.2.1" type="device">
  <diagram name="Page-1" id="Ptf9d7fbbnYOccrXUrUt">
    <mxGraphModel dx="1434" dy="699" grid="1" gridSize="10" guides="1" tooltips="1" connect="1" arrows="1" fold="1" page="1" pageScale="1" pageWidth="850" pageHeight="1100" math="0" shadow="0">
      <root>
        <mxCell id="0" />
        <mxCell id="1" parent="0" />
        <mxCell id="-rTBcuQoOMtFdPj97vV_-7" value="" style="strokeWidth=1;shadow=0;dashed=0;align=center;html=1;shape=mxgraph.mockup.containers.browserWindow;rSize=0;strokeColor=#666666;strokeColor2=#008cff;strokeColor3=#c4c4c4;mainText=,;recursiveResize=0;" vertex="1" parent="1">
          <mxGeometry width="850" height="1100" as="geometry" />
        </mxCell>
        <mxCell id="-rTBcuQoOMtFdPj97vV_-8" value="Page 1" style="strokeWidth=1;shadow=0;dashed=0;align=center;html=1;shape=mxgraph.mockup.containers.anchor;fontSize=17;fontColor=#666666;align=left;whiteSpace=wrap;" vertex="1" parent="-rTBcuQoOMtFdPj97vV_-7">
          <mxGeometry x="60" y="12" width="110" height="26" as="geometry" />
        </mxCell>
        <mxCell id="-rTBcuQoOMtFdPj97vV_-9" value="https://www.draw.io" style="strokeWidth=1;shadow=0;dashed=0;align=center;html=1;shape=mxgraph.mockup.containers.anchor;rSize=0;fontSize=17;fontColor=#666666;align=left;" vertex="1" parent="-rTBcuQoOMtFdPj97vV_-7">
          <mxGeometry x="130" y="60" width="250" height="26" as="geometry" />
        </mxCell>
        <mxCell id="-rTBcuQoOMtFdPj97vV_-10" value="" style="verticalLabelPosition=bottom;shadow=0;dashed=0;align=center;html=1;verticalAlign=top;strokeWidth=1;shape=mxgraph.mockup.containers.userFemale;strokeColor=#666666;strokeColor2=#008cff;" vertex="1" parent="-rTBcuQoOMtFdPj97vV_-7">
          <mxGeometry x="800" y="120" width="40" height="40" as="geometry" />
        </mxCell>
        <mxCell id="-rTBcuQoOMtFdPj97vV_-23" value="Sign in" style="strokeWidth=1;shadow=0;dashed=0;align=center;html=1;shape=mxgraph.mockup.text.textBox;fontColor=#666666;align=left;fontSize=17;spacingLeft=4;spacingTop=-3;whiteSpace=wrap;strokeColor=#666666;mainText=" vertex="1" parent="-rTBcuQoOMtFdPj97vV_-7">
          <mxGeometry x="710" y="130" width="80" height="20" as="geometry" />
        </mxCell>
        <mxCell id="-rTBcuQoOMtFdPj97vV_-24" value="" style="shape=mxgraph.mockup.containers.marginRect;rectMarginTop=10;strokeColor=#666666;strokeWidth=1;dashed=0;rounded=1;arcSize=5;recursiveResize=0;html=1;whiteSpace=wrap;" vertex="1" parent="-rTBcuQoOMtFdPj97vV_-7">
          <mxGeometry x="10" y="210" width="150" height="880" as="geometry" />
        </mxCell>
        <mxCell id="-rTBcuQoOMtFdPj97vV_-25" value="Categories" style="shape=rect;strokeColor=none;fillColor=#008cff;strokeWidth=1;dashed=0;rounded=1;arcSize=20;fontColor=#ffffff;fontSize=17;spacing=2;spacingTop=-2;align=left;autosize=1;spacingLeft=4;resizeWidth=0;resizeHeight=0;perimeter=none;html=1;whiteSpace=wrap;" vertex="1" parent="-rTBcuQoOMtFdPj97vV_-24">
          <mxGeometry x="5" width="110" height="30" as="geometry" />
        </mxCell>
        <mxCell id="-rTBcuQoOMtFdPj97vV_-26" value="Comedy" style="strokeWidth=1;shadow=0;dashed=0;align=center;html=1;shape=mxgraph.mockup.text.textBox;fontColor=#666666;align=left;fontSize=17;spacingLeft=4;spacingTop=-3;whiteSpace=wrap;strokeColor=#666666;mainText=" vertex="1" parent="-rTBcuQoOMtFdPj97vV_-24">
          <mxGeometry y="60" width="150" height="30" as="geometry" />
        </mxCell>
        <mxCell id="-rTBcuQoOMtFdPj97vV_-27" value="Horror" style="strokeWidth=1;shadow=0;dashed=0;align=center;html=1;shape=mxgraph.mockup.text.textBox;fontColor=#666666;align=left;fontSize=17;spacingLeft=4;spacingTop=-3;whiteSpace=wrap;strokeColor=#666666;mainText=" vertex="1" parent="-rTBcuQoOMtFdPj97vV_-24">
          <mxGeometry y="120" width="150" height="30" as="geometry" />
        </mxCell>
        <mxCell id="-rTBcuQoOMtFdPj97vV_-28" value="Anime" style="strokeWidth=1;shadow=0;dashed=0;align=center;html=1;shape=mxgraph.mockup.text.textBox;fontColor=#666666;align=left;fontSize=17;spacingLeft=4;spacingTop=-3;whiteSpace=wrap;strokeColor=#666666;mainText=" vertex="1" parent="-rTBcuQoOMtFdPj97vV_-24">
          <mxGeometry y="180" width="150" height="30" as="geometry" />
        </mxCell>
        <mxCell id="-rTBcuQoOMtFdPj97vV_-29" value="Suspense" style="strokeWidth=1;shadow=0;dashed=0;align=center;html=1;shape=mxgraph.mockup.text.textBox;fontColor=#666666;align=left;fontSize=17;spacingLeft=4;spacingTop=-3;whiteSpace=wrap;strokeColor=#666666;mainText=" vertex="1" parent="-rTBcuQoOMtFdPj97vV_-24">
          <mxGeometry y="240" width="150" height="30" as="geometry" />
        </mxCell>
        <mxCell id="-rTBcuQoOMtFdPj97vV_-30" value="Crime" style="strokeWidth=1;shadow=0;dashed=0;align=center;html=1;shape=mxgraph.mockup.text.textBox;fontColor=#666666;align=left;fontSize=17;spacingLeft=4;spacingTop=-3;whiteSpace=wrap;strokeColor=#666666;mainText=" vertex="1" parent="-rTBcuQoOMtFdPj97vV_-24">
          <mxGeometry y="300" width="150" height="30" as="geometry" />
        </mxCell>
        <mxCell id="-rTBcuQoOMtFdPj97vV_-31" value="Documentary" style="strokeWidth=1;shadow=0;dashed=0;align=center;html=1;shape=mxgraph.mockup.text.textBox;fontColor=#666666;align=left;fontSize=17;spacingLeft=4;spacingTop=-3;whiteSpace=wrap;strokeColor=#666666;mainText=" vertex="1" parent="-rTBcuQoOMtFdPj97vV_-24">
          <mxGeometry y="360" width="150" height="30" as="geometry" />
        </mxCell>
        <mxCell id="-rTBcuQoOMtFdPj97vV_-32" value="Line 1" style="strokeWidth=1;shadow=0;dashed=0;align=center;html=1;shape=mxgraph.mockup.text.textBox;fontColor=#666666;align=left;fontSize=17;spacingLeft=4;spacingTop=-3;whiteSpace=wrap;strokeColor=#666666;mainText=" vertex="1" parent="-rTBcuQoOMtFdPj97vV_-24">
          <mxGeometry y="420" width="150" height="30" as="geometry" />
        </mxCell>
        <mxCell id="-rTBcuQoOMtFdPj97vV_-34" value="Indie" style="strokeWidth=1;shadow=0;dashed=0;align=center;html=1;shape=mxgraph.mockup.text.textBox;fontColor=#666666;align=left;fontSize=17;spacingLeft=4;spacingTop=-3;whiteSpace=wrap;strokeColor=#666666;mainText=" vertex="1" parent="-rTBcuQoOMtFdPj97vV_-24">
          <mxGeometry y="480" width="150" height="30" as="geometry" />
        </mxCell>
        <mxCell id="-rTBcuQoOMtFdPj97vV_-35" value="Kids" style="strokeWidth=1;shadow=0;dashed=0;align=center;html=1;shape=mxgraph.mockup.text.textBox;fontColor=#666666;align=left;fontSize=17;spacingLeft=4;spacingTop=-3;whiteSpace=wrap;strokeColor=#666666;mainText=" vertex="1" parent="-rTBcuQoOMtFdPj97vV_-24">
          <mxGeometry y="540" width="150" height="30" as="geometry" />
        </mxCell>
        <mxCell id="-rTBcuQoOMtFdPj97vV_-36" value="Family" style="strokeWidth=1;shadow=0;dashed=0;align=center;html=1;shape=mxgraph.mockup.text.textBox;fontColor=#666666;align=left;fontSize=17;spacingLeft=4;spacingTop=-3;whiteSpace=wrap;strokeColor=#666666;mainText=" vertex="1" parent="-rTBcuQoOMtFdPj97vV_-24">
          <mxGeometry y="600" width="150" height="30" as="geometry" />
        </mxCell>
        <mxCell id="-rTBcuQoOMtFdPj97vV_-37" value="TV Shows" style="strokeWidth=1;shadow=0;dashed=0;align=center;html=1;shape=mxgraph.mockup.text.textBox;fontColor=#666666;align=left;fontSize=17;spacingLeft=4;spacingTop=-3;whiteSpace=wrap;strokeColor=#666666;mainText=" vertex="1" parent="-rTBcuQoOMtFdPj97vV_-24">
          <mxGeometry y="660" width="150" height="30" as="geometry" />
        </mxCell>
        <mxCell id="-rTBcuQoOMtFdPj97vV_-38" value="Movies" style="strokeWidth=1;shadow=0;dashed=0;align=center;html=1;shape=mxgraph.mockup.text.textBox;fontColor=#666666;align=left;fontSize=17;spacingLeft=4;spacingTop=-3;whiteSpace=wrap;strokeColor=#666666;mainText=" vertex="1" parent="-rTBcuQoOMtFdPj97vV_-24">
          <mxGeometry y="720" width="150" height="30" as="geometry" />
        </mxCell>
        <mxCell id="-rTBcuQoOMtFdPj97vV_-39" value="New Releases" style="strokeWidth=1;shadow=0;dashed=0;align=center;html=1;shape=mxgraph.mockup.text.textBox;fontColor=#666666;align=left;fontSize=17;spacingLeft=4;spacingTop=-3;whiteSpace=wrap;strokeColor=#666666;mainText=" vertex="1" parent="-rTBcuQoOMtFdPj97vV_-24">
          <mxGeometry y="780" width="150" height="30" as="geometry" />
        </mxCell>
        <mxCell id="-rTBcuQoOMtFdPj97vV_-40" value="Just for you" style="strokeWidth=1;shadow=0;dashed=0;align=center;html=1;shape=mxgraph.mockup.text.textBox;fontColor=#666666;align=left;fontSize=17;spacingLeft=4;spacingTop=-3;whiteSpace=wrap;strokeColor=#666666;mainText=" vertex="1" parent="-rTBcuQoOMtFdPj97vV_-24">
          <mxGeometry y="840" width="150" height="30" as="geometry" />
        </mxCell>
        <mxCell id="-rTBcuQoOMtFdPj97vV_-41" value="" style="whiteSpace=wrap;html=1;aspect=fixed;" vertex="1" parent="-rTBcuQoOMtFdPj97vV_-7">
          <mxGeometry x="180" y="230" width="140" height="140" as="geometry" />
        </mxCell>
        <mxCell id="-rTBcuQoOMtFdPj97vV_-42" value="" style="whiteSpace=wrap;html=1;aspect=fixed;" vertex="1" parent="-rTBcuQoOMtFdPj97vV_-7">
          <mxGeometry x="330" y="230" width="140" height="140" as="geometry" />
        </mxCell>
        <mxCell id="-rTBcuQoOMtFdPj97vV_-43" value="" style="whiteSpace=wrap;html=1;aspect=fixed;" vertex="1" parent="-rTBcuQoOMtFdPj97vV_-7">
          <mxGeometry x="480" y="230" width="140" height="140" as="geometry" />
        </mxCell>
        <mxCell id="-rTBcuQoOMtFdPj97vV_-44" value="" style="whiteSpace=wrap;html=1;aspect=fixed;" vertex="1" parent="-rTBcuQoOMtFdPj97vV_-7">
          <mxGeometry x="630" y="230" width="140" height="140" as="geometry" />
        </mxCell>
        <mxCell id="-rTBcuQoOMtFdPj97vV_-45" value="" style="whiteSpace=wrap;html=1;aspect=fixed;" vertex="1" parent="-rTBcuQoOMtFdPj97vV_-7">
          <mxGeometry x="480" y="440" width="140" height="140" as="geometry" />
        </mxCell>
        <mxCell id="-rTBcuQoOMtFdPj97vV_-46" value="" style="whiteSpace=wrap;html=1;aspect=fixed;" vertex="1" parent="-rTBcuQoOMtFdPj97vV_-7">
          <mxGeometry x="180" y="440" width="140" height="140" as="geometry" />
        </mxCell>
        <mxCell id="-rTBcuQoOMtFdPj97vV_-47" value="" style="whiteSpace=wrap;html=1;aspect=fixed;" vertex="1" parent="-rTBcuQoOMtFdPj97vV_-7">
          <mxGeometry x="330" y="440" width="140" height="140" as="geometry" />
        </mxCell>
        <mxCell id="-rTBcuQoOMtFdPj97vV_-48" value="" style="whiteSpace=wrap;html=1;aspect=fixed;" vertex="1" parent="-rTBcuQoOMtFdPj97vV_-7">
          <mxGeometry x="630" y="440" width="140" height="140" as="geometry" />
        </mxCell>
        <mxCell id="-rTBcuQoOMtFdPj97vV_-49" value="" style="whiteSpace=wrap;html=1;aspect=fixed;" vertex="1" parent="-rTBcuQoOMtFdPj97vV_-7">
          <mxGeometry x="480" y="440" width="140" height="140" as="geometry" />
        </mxCell>
        <mxCell id="-rTBcuQoOMtFdPj97vV_-50" value="" style="whiteSpace=wrap;html=1;aspect=fixed;" vertex="1" parent="-rTBcuQoOMtFdPj97vV_-7">
          <mxGeometry x="630" y="440" width="140" height="140" as="geometry" />
        </mxCell>
        <mxCell id="-rTBcuQoOMtFdPj97vV_-51" value="" style="whiteSpace=wrap;html=1;aspect=fixed;" vertex="1" parent="-rTBcuQoOMtFdPj97vV_-7">
          <mxGeometry x="180" y="650" width="140" height="140" as="geometry" />
        </mxCell>
        <mxCell id="-rTBcuQoOMtFdPj97vV_-52" value="" style="whiteSpace=wrap;html=1;aspect=fixed;" vertex="1" parent="-rTBcuQoOMtFdPj97vV_-7">
          <mxGeometry x="330" y="650" width="140" height="140" as="geometry" />
        </mxCell>
        <mxCell id="-rTBcuQoOMtFdPj97vV_-53" value="" style="whiteSpace=wrap;html=1;aspect=fixed;" vertex="1" parent="-rTBcuQoOMtFdPj97vV_-7">
          <mxGeometry x="480" y="650" width="140" height="140" as="geometry" />
        </mxCell>
        <mxCell id="-rTBcuQoOMtFdPj97vV_-54" value="" style="whiteSpace=wrap;html=1;aspect=fixed;" vertex="1" parent="-rTBcuQoOMtFdPj97vV_-7">
          <mxGeometry x="630" y="650" width="140" height="140" as="geometry" />
        </mxCell>
        <mxCell id="-rTBcuQoOMtFdPj97vV_-55" value="" style="whiteSpace=wrap;html=1;aspect=fixed;" vertex="1" parent="-rTBcuQoOMtFdPj97vV_-7">
          <mxGeometry x="180" y="860" width="140" height="140" as="geometry" />
        </mxCell>
        <mxCell id="-rTBcuQoOMtFdPj97vV_-56" value="" style="whiteSpace=wrap;html=1;aspect=fixed;" vertex="1" parent="-rTBcuQoOMtFdPj97vV_-7">
          <mxGeometry x="330" y="860" width="140" height="140" as="geometry" />
        </mxCell>
        <mxCell id="-rTBcuQoOMtFdPj97vV_-57" value="" style="whiteSpace=wrap;html=1;aspect=fixed;" vertex="1" parent="-rTBcuQoOMtFdPj97vV_-7">
          <mxGeometry x="480" y="860" width="140" height="140" as="geometry" />
        </mxCell>
        <mxCell id="-rTBcuQoOMtFdPj97vV_-58" value="" style="whiteSpace=wrap;html=1;aspect=fixed;" vertex="1" parent="-rTBcuQoOMtFdPj97vV_-7">
          <mxGeometry x="630" y="860" width="140" height="140" as="geometry" />
        </mxCell>
        <mxCell id="-rTBcuQoOMtFdPj97vV_-59" value="Title" style="text;html=1;strokeColor=none;fillColor=none;align=center;verticalAlign=middle;whiteSpace=wrap;rounded=0;" vertex="1" parent="-rTBcuQoOMtFdPj97vV_-7">
          <mxGeometry x="220" y="370" width="60" height="30" as="geometry" />
        </mxCell>
        <mxCell id="-rTBcuQoOMtFdPj97vV_-60" value="Title" style="text;html=1;strokeColor=none;fillColor=none;align=center;verticalAlign=middle;whiteSpace=wrap;rounded=0;" vertex="1" parent="-rTBcuQoOMtFdPj97vV_-7">
          <mxGeometry x="370" y="370" width="60" height="30" as="geometry" />
        </mxCell>
        <mxCell id="-rTBcuQoOMtFdPj97vV_-61" value="Title" style="text;html=1;strokeColor=none;fillColor=none;align=center;verticalAlign=middle;whiteSpace=wrap;rounded=0;" vertex="1" parent="-rTBcuQoOMtFdPj97vV_-7">
          <mxGeometry x="520" y="370" width="60" height="30" as="geometry" />
        </mxCell>
        <mxCell id="-rTBcuQoOMtFdPj97vV_-62" value="Title" style="text;html=1;strokeColor=none;fillColor=none;align=center;verticalAlign=middle;whiteSpace=wrap;rounded=0;" vertex="1" parent="-rTBcuQoOMtFdPj97vV_-7">
          <mxGeometry x="670" y="370" width="60" height="30" as="geometry" />
        </mxCell>
        <mxCell id="-rTBcuQoOMtFdPj97vV_-63" value="Title" style="text;html=1;strokeColor=none;fillColor=none;align=center;verticalAlign=middle;whiteSpace=wrap;rounded=0;" vertex="1" parent="-rTBcuQoOMtFdPj97vV_-7">
          <mxGeometry x="220" y="580" width="60" height="30" as="geometry" />
        </mxCell>
        <mxCell id="-rTBcuQoOMtFdPj97vV_-64" value="Title" style="text;html=1;strokeColor=none;fillColor=none;align=center;verticalAlign=middle;whiteSpace=wrap;rounded=0;" vertex="1" parent="-rTBcuQoOMtFdPj97vV_-7">
          <mxGeometry x="370" y="580" width="60" height="30" as="geometry" />
        </mxCell>
        <mxCell id="-rTBcuQoOMtFdPj97vV_-65" value="Title" style="text;html=1;strokeColor=none;fillColor=none;align=center;verticalAlign=middle;whiteSpace=wrap;rounded=0;" vertex="1" parent="-rTBcuQoOMtFdPj97vV_-7">
          <mxGeometry x="520" y="580" width="60" height="30" as="geometry" />
        </mxCell>
        <mxCell id="-rTBcuQoOMtFdPj97vV_-66" value="Title" style="text;html=1;strokeColor=none;fillColor=none;align=center;verticalAlign=middle;whiteSpace=wrap;rounded=0;" vertex="1" parent="-rTBcuQoOMtFdPj97vV_-7">
          <mxGeometry x="670" y="580" width="60" height="30" as="geometry" />
        </mxCell>
        <mxCell id="-rTBcuQoOMtFdPj97vV_-67" value="Title" style="text;html=1;strokeColor=none;fillColor=none;align=center;verticalAlign=middle;whiteSpace=wrap;rounded=0;" vertex="1" parent="-rTBcuQoOMtFdPj97vV_-7">
          <mxGeometry x="220" y="790" width="60" height="30" as="geometry" />
        </mxCell>
        <mxCell id="-rTBcuQoOMtFdPj97vV_-68" value="Title" style="text;html=1;strokeColor=none;fillColor=none;align=center;verticalAlign=middle;whiteSpace=wrap;rounded=0;" vertex="1" parent="-rTBcuQoOMtFdPj97vV_-7">
          <mxGeometry x="370" y="790" width="60" height="30" as="geometry" />
        </mxCell>
        <mxCell id="-rTBcuQoOMtFdPj97vV_-69" value="Title" style="text;html=1;strokeColor=none;fillColor=none;align=center;verticalAlign=middle;whiteSpace=wrap;rounded=0;" vertex="1" parent="-rTBcuQoOMtFdPj97vV_-7">
          <mxGeometry x="520" y="790" width="60" height="30" as="geometry" />
        </mxCell>
        <mxCell id="-rTBcuQoOMtFdPj97vV_-70" value="Title" style="text;html=1;strokeColor=none;fillColor=none;align=center;verticalAlign=middle;whiteSpace=wrap;rounded=0;" vertex="1" parent="-rTBcuQoOMtFdPj97vV_-7">
          <mxGeometry x="670" y="790" width="60" height="30" as="geometry" />
        </mxCell>
        <mxCell id="-rTBcuQoOMtFdPj97vV_-71" value="Title" style="text;html=1;strokeColor=none;fillColor=none;align=center;verticalAlign=middle;whiteSpace=wrap;rounded=0;" vertex="1" parent="-rTBcuQoOMtFdPj97vV_-7">
          <mxGeometry x="220" y="1000" width="60" height="30" as="geometry" />
        </mxCell>
        <mxCell id="-rTBcuQoOMtFdPj97vV_-72" value="Title" style="text;html=1;strokeColor=none;fillColor=none;align=center;verticalAlign=middle;whiteSpace=wrap;rounded=0;" vertex="1" parent="-rTBcuQoOMtFdPj97vV_-7">
          <mxGeometry x="370" y="1000" width="60" height="30" as="geometry" />
        </mxCell>
        <mxCell id="-rTBcuQoOMtFdPj97vV_-73" value="Title" style="text;html=1;strokeColor=none;fillColor=none;align=center;verticalAlign=middle;whiteSpace=wrap;rounded=0;" vertex="1" parent="-rTBcuQoOMtFdPj97vV_-7">
          <mxGeometry x="520" y="1000" width="60" height="30" as="geometry" />
        </mxCell>
        <mxCell id="-rTBcuQoOMtFdPj97vV_-74" value="Title" style="text;html=1;strokeColor=none;fillColor=none;align=center;verticalAlign=middle;whiteSpace=wrap;rounded=0;" vertex="1" parent="-rTBcuQoOMtFdPj97vV_-7">
          <mxGeometry x="670" y="1000" width="60" height="30" as="geometry" />
        </mxCell>
        <mxCell id="-rTBcuQoOMtFdPj97vV_-75" value="" style="triangle;whiteSpace=wrap;html=1;" vertex="1" parent="-rTBcuQoOMtFdPj97vV_-7">
          <mxGeometry x="240" y="287.5" width="20" height="25" as="geometry" />
        </mxCell>
        <mxCell id="-rTBcuQoOMtFdPj97vV_-77" value="" style="triangle;whiteSpace=wrap;html=1;" vertex="1" parent="-rTBcuQoOMtFdPj97vV_-7">
          <mxGeometry x="390" y="287.5" width="20" height="25" as="geometry" />
        </mxCell>
        <mxCell id="-rTBcuQoOMtFdPj97vV_-78" value="" style="triangle;whiteSpace=wrap;html=1;" vertex="1" parent="-rTBcuQoOMtFdPj97vV_-7">
          <mxGeometry x="540" y="287.5" width="20" height="25" as="geometry" />
        </mxCell>
        <mxCell id="-rTBcuQoOMtFdPj97vV_-79" value="" style="triangle;whiteSpace=wrap;html=1;" vertex="1" parent="-rTBcuQoOMtFdPj97vV_-7">
          <mxGeometry x="690" y="287.5" width="20" height="25" as="geometry" />
        </mxCell>
        <mxCell id="-rTBcuQoOMtFdPj97vV_-80" value="" style="triangle;whiteSpace=wrap;html=1;" vertex="1" parent="-rTBcuQoOMtFdPj97vV_-7">
          <mxGeometry x="240" y="497.5" width="20" height="25" as="geometry" />
        </mxCell>
        <mxCell id="-rTBcuQoOMtFdPj97vV_-81" value="" style="triangle;whiteSpace=wrap;html=1;" vertex="1" parent="-rTBcuQoOMtFdPj97vV_-7">
          <mxGeometry x="390" y="497.5" width="20" height="25" as="geometry" />
        </mxCell>
        <mxCell id="-rTBcuQoOMtFdPj97vV_-82" value="" style="triangle;whiteSpace=wrap;html=1;" vertex="1" parent="-rTBcuQoOMtFdPj97vV_-7">
          <mxGeometry x="540" y="497.5" width="20" height="25" as="geometry" />
        </mxCell>
        <mxCell id="-rTBcuQoOMtFdPj97vV_-83" value="" style="triangle;whiteSpace=wrap;html=1;" vertex="1" parent="-rTBcuQoOMtFdPj97vV_-7">
          <mxGeometry x="690" y="497.5" width="20" height="25" as="geometry" />
        </mxCell>
        <mxCell id="-rTBcuQoOMtFdPj97vV_-84" value="" style="triangle;whiteSpace=wrap;html=1;" vertex="1" parent="-rTBcuQoOMtFdPj97vV_-7">
          <mxGeometry x="240" y="710" width="20" height="25" as="geometry" />
        </mxCell>
        <mxCell id="-rTBcuQoOMtFdPj97vV_-85" value="" style="triangle;whiteSpace=wrap;html=1;" vertex="1" parent="-rTBcuQoOMtFdPj97vV_-7">
          <mxGeometry x="390" y="710" width="20" height="25" as="geometry" />
        </mxCell>
        <mxCell id="-rTBcuQoOMtFdPj97vV_-86" value="" style="triangle;whiteSpace=wrap;html=1;" vertex="1" parent="-rTBcuQoOMtFdPj97vV_-7">
          <mxGeometry x="540" y="710" width="20" height="25" as="geometry" />
        </mxCell>
        <mxCell id="-rTBcuQoOMtFdPj97vV_-87" value="" style="triangle;whiteSpace=wrap;html=1;" vertex="1" parent="-rTBcuQoOMtFdPj97vV_-7">
          <mxGeometry x="690" y="710" width="20" height="25" as="geometry" />
        </mxCell>
        <mxCell id="-rTBcuQoOMtFdPj97vV_-88" value="" style="triangle;whiteSpace=wrap;html=1;" vertex="1" parent="-rTBcuQoOMtFdPj97vV_-7">
          <mxGeometry x="240" y="920" width="20" height="25" as="geometry" />
        </mxCell>
        <mxCell id="-rTBcuQoOMtFdPj97vV_-89" value="" style="triangle;whiteSpace=wrap;html=1;" vertex="1" parent="-rTBcuQoOMtFdPj97vV_-7">
          <mxGeometry x="390" y="920" width="20" height="25" as="geometry" />
        </mxCell>
        <mxCell id="-rTBcuQoOMtFdPj97vV_-90" value="" style="triangle;whiteSpace=wrap;html=1;" vertex="1" parent="-rTBcuQoOMtFdPj97vV_-7">
          <mxGeometry x="540" y="920" width="20" height="25" as="geometry" />
        </mxCell>
        <mxCell id="-rTBcuQoOMtFdPj97vV_-91" value="" style="triangle;whiteSpace=wrap;html=1;" vertex="1" parent="-rTBcuQoOMtFdPj97vV_-7">
          <mxGeometry x="690" y="920" width="20" height="25" as="geometry" />
        </mxCell>
        <mxCell id="-rTBcuQoOMtFdPj97vV_-92" value="Home" style="strokeWidth=1;shadow=0;dashed=0;align=center;html=1;shape=mxgraph.mockup.text.textBox;fontColor=#666666;align=left;fontSize=17;spacingLeft=4;spacingTop=-3;whiteSpace=wrap;strokeColor=#666666;mainText=" vertex="1" parent="-rTBcuQoOMtFdPj97vV_-7">
          <mxGeometry x="30" y="130" width="150" height="60" as="geometry" />
        </mxCell>
        <mxCell id="-rTBcuQoOMtFdPj97vV_-93" value="Store" style="strokeWidth=1;shadow=0;dashed=0;align=center;html=1;shape=mxgraph.mockup.text.textBox;fontColor=#666666;align=left;fontSize=17;spacingLeft=4;spacingTop=-3;whiteSpace=wrap;strokeColor=#666666;mainText=" vertex="1" parent="-rTBcuQoOMtFdPj97vV_-7">
          <mxGeometry x="200" y="130" width="150" height="60" as="geometry" />
        </mxCell>
        <mxCell id="-rTBcuQoOMtFdPj97vV_-94" value="Free With Ads" style="strokeWidth=1;shadow=0;dashed=0;align=center;html=1;shape=mxgraph.mockup.text.textBox;fontColor=#666666;align=left;fontSize=17;spacingLeft=4;spacingTop=-3;whiteSpace=wrap;strokeColor=#666666;mainText=" vertex="1" parent="-rTBcuQoOMtFdPj97vV_-7">
          <mxGeometry x="370" y="130" width="150" height="60" as="geometry" />
        </mxCell>
        <mxCell id="-rTBcuQoOMtFdPj97vV_-95" value="Top Movies in your Area" style="strokeWidth=1;shadow=0;dashed=0;align=center;html=1;shape=mxgraph.mockup.text.textBox;fontColor=#666666;align=left;fontSize=17;spacingLeft=4;spacingTop=-3;whiteSpace=wrap;strokeColor=#666666;mainText=" vertex="1" parent="-rTBcuQoOMtFdPj97vV_-7">
          <mxGeometry x="540" y="130" width="150" height="60" as="geometry" />
        </mxCell>
        <mxCell id="-rTBcuQoOMtFdPj97vV_-33" value="Foreign" style="strokeWidth=1;shadow=0;dashed=0;align=center;html=1;shape=mxgraph.mockup.text.textBox;fontColor=#666666;align=left;fontSize=17;spacingLeft=4;spacingTop=-3;whiteSpace=wrap;strokeColor=#666666;mainText=" vertex="1" parent="1">
          <mxGeometry x="10" y="630" width="150" height="30" as="geometry" />
        </mxCell>
      </root>
    </mxGraphModel>
  </diagram>
</mxfile>
